<?xml version="1.0" encoding="UTF-8"?>
<svg id="vt-svg" xmlns="http://www.w3.org/2000/svg" class="vt-work" aria-hidden="true" viewBox="0 0 2048 2048" width="2048" height="2048"><path d="M0,0 L11,1 L41,12 L69,23 L114,40 L145,52 L173,63 L217,80 L241,89 L276,103 L307,115 L343,129 L358,135 L365,138 L374,136 L401,125 L458,103 L506,84 L540,71 L574,58 L605,46 L638,33 L654,27 L696,11 L723,1 L734,1 L751,7 L784,20 L812,31 L846,44 L882,58 L921,73 L944,82 L972,93 L999,103 L1042,120 L1073,132 L1085,137 L1090,143 L1090,1253 L1087,1256 L1077,1255 L1052,1245 L1023,1234 L995,1223 L953,1207 L905,1189 L877,1178 L851,1168 L812,1153 L773,1138 L744,1127 L732,1123 L724,1124 L687,1138 L648,1153 L635,1158 L594,1174 L575,1181 L537,1196 L497,1211 L469,1222 L445,1231 L401,1248 L378,1257 L370,1260 L362,1260 L346,1254 L331,1248 L316,1242 L300,1236 L269,1224 L252,1217 L236,1211 L205,1199 L161,1182 L144,1176 L113,1164 L77,1150 L62,1144 L46,1138 L20,1128 L6,1123 L-3,1124 L-43,1139 L-58,1145 L-82,1154 L-121,1169 L-161,1184 L-192,1196 L-226,1209 L-252,1219 L-273,1227 L-293,1235 L-313,1242 L-330,1249 L-349,1256 L-356,1256 L-358,1253 L-358,143 L-354,138 L-336,130 L-299,116 L-263,102 L-235,91 L-186,72 L-145,56 L-99,38 L-55,21 L-19,7 Z " transform="translate(658,398)" style="fill: #1EB7DF;"/><path d="M0,0 L11,1 L41,12 L69,23 L114,40 L145,52 L173,63 L217,80 L241,89 L276,103 L307,115 L343,129 L358,135 L365,138 L374,136 L401,125 L458,103 L506,84 L540,71 L574,58 L605,46 L638,33 L654,27 L696,11 L723,1 L734,1 L738,3 L729,4 L729,138 L713,143 L701,148 L658,163 L642,169 L637,170 L637,194 L624,199 L603,206 L602,465 L582,473 L562,480 L544,487 L524,494 L499,503 L496,503 L496,527 L472,535 L447,544 L428,551 L404,560 L380,569 L368,573 L366,573 L366,495 L356,492 L321,479 L298,470 L285,465 L258,455 L255,453 L255,497 L226,486 L195,474 L153,458 L138,452 L135,450 L135,562 L140,563 L192,583 L231,598 L243,603 L243,834 L238,833 L219,826 L189,814 L177,809 L162,803 L142,795 L121,787 L109,782 L74,768 L46,757 L30,751 L20,747 L4,740 L4,1120 L10,1121 L27,1127 L51,1136 L82,1148 L95,1153 L123,1164 L135,1168 L143,1172 L139,1174 L113,1164 L77,1150 L62,1144 L46,1138 L20,1128 L6,1123 L-3,1124 L-43,1139 L-58,1145 L-82,1154 L-121,1169 L-161,1184 L-192,1196 L-226,1209 L-252,1219 L-273,1227 L-293,1235 L-313,1242 L-330,1249 L-349,1256 L-356,1256 L-358,1253 L-358,143 L-354,138 L-336,130 L-299,116 L-263,102 L-235,91 L-186,72 L-145,56 L-99,38 L-55,21 L-19,7 Z " transform="translate(658,398)" style="fill: #18B1E1;"/><path d="M0,0 L9,1 L26,7 L38,12 L77,27 L118,43 L122,45 L122,130 L132,133 L161,144 L188,155 L232,172 L257,182 L270,187 L295,197 L326,209 L354,220 L363,224 L364,227 L364,707 L361,710 L351,709 L326,699 L297,688 L269,677 L227,661 L179,643 L151,632 L125,622 L86,607 L47,592 L18,581 L6,577 L-2,578 L-39,592 L-78,607 L-91,612 L-132,628 L-151,635 L-189,650 L-229,665 L-257,676 L-281,685 L-325,702 L-348,711 L-357,714 L-360,713 L-360,475 L-351,471 L-312,456 L-295,450 L-292,450 L-292,324 L-284,320 L-267,314 L-260,312 L-255,312 L-255,289 L-246,285 L-226,278 L-214,274 L-211,274 L-211,140 L-196,134 L-170,124 L-141,114 L-138,114 L-138,53 L-128,48 L-103,39 L-74,28 L-45,17 L-4,2 Z " transform="translate(1384,944)" style="fill: #0576BC;"/><path d="M0,0 L4,2 L-8,7 L-15,11 L-16,13 L-17,370 L2,364 L12,360 L24,356 L36,351 L54,344 L58,344 L58,342 L79,335 L96,328 L103,326 L113,322 L131,316 L141,312 L165,303 L182,296 L196,291 L214,284 L234,277 L274,262 L290,256 L326,243 L340,238 L345,239 L353,242 L365,247 L380,253 L396,259 L423,269 L428,271 L428,303 L440,306 L462,314 L472,318 L473,319 L473,431 L478,432 L530,452 L569,467 L581,472 L581,703 L576,702 L557,695 L527,683 L515,678 L500,672 L480,664 L459,656 L447,651 L412,637 L384,626 L368,620 L358,616 L342,609 L342,989 L348,990 L365,996 L389,1005 L420,1017 L433,1022 L461,1033 L473,1037 L481,1041 L477,1043 L451,1033 L415,1019 L400,1013 L384,1007 L358,997 L344,992 L335,993 L295,1008 L280,1014 L256,1023 L217,1038 L177,1053 L146,1065 L112,1078 L86,1088 L65,1096 L45,1104 L25,1111 L8,1118 L-11,1125 L-18,1125 L-20,1122 L-20,12 L-16,7 Z " transform="translate(320,529)" style="fill: #0289CF;"/><path d="M0,0 L9,3 L36,14 L76,29 L96,37 L119,46 L120,3 L129,6 L150,14 L165,20 L189,29 L231,45 L231,123 L263,111 L279,105 L310,94 L315,92 L319,92 L319,259 L334,253 L355,245 L372,239 L376,237 L379,237 L379,370 L354,379 L337,385 L336,408 L318,413 L300,420 L299,546 L271,556 L232,571 L231,809 L234,810 L227,810 L211,804 L196,798 L181,792 L165,786 L134,774 L117,767 L101,761 L70,749 L26,732 L9,726 L6,723 L4,721 L-14,714 L-43,703 L-55,698 L-84,687 L-116,675 L-131,670 L-131,290 L-122,293 L-106,299 L-94,304 L-66,315 L-36,327 L-15,335 L-4,340 L9,345 L29,353 L45,359 L71,370 L97,380 L108,384 L108,153 L99,150 L59,135 L39,127 L0,112 Z " transform="translate(793,848)" style="fill: #27C4DD;"/><path d="M0,0 L4,1 L3,573 L18,577 L28,581 L33,583 L31,585 L26,584 L10,578 L1,577 L-34,590 L-75,606 L-91,612 L-132,628 L-151,635 L-189,650 L-229,665 L-257,676 L-281,685 L-325,702 L-348,711 L-357,714 L-360,713 L-360,475 L-351,471 L-312,456 L-295,450 L-292,450 L-292,324 L-284,320 L-267,314 L-260,312 L-255,312 L-255,289 L-246,285 L-226,278 L-214,274 L-211,274 L-211,140 L-196,134 L-170,124 L-141,114 L-138,114 L-138,53 L-128,48 L-103,39 L-74,28 L-45,17 L-4,2 Z " transform="translate(1384,944)" style="fill: #005997;"/><path d="M0,0 L11,1 L41,12 L69,23 L114,40 L124,44 L122,46 L116,45 L90,35 L59,23 L46,18 L8,4 L3,3 L4,6 L4,369 L-34,383 L-58,392 L-113,412 L-134,420 L-148,425 L-160,430 L-187,440 L-197,444 L-207,448 L-227,455 L-235,458 L-249,463 L-273,472 L-280,473 L-280,475 L-300,482 L-313,487 L-322,491 L-335,495 L-343,498 L-351,501 L-355,501 L-355,144 L-350,139 L-339,134 L-335,133 L-336,130 L-299,116 L-263,102 L-235,91 L-186,72 L-145,56 L-99,38 L-55,21 L-19,7 Z " transform="translate(658,398)" style="fill: #0795D2;"/><path d="M0,0 L11,0 L15,2 L6,3 L6,137 L-10,142 L-22,147 L-65,162 L-81,168 L-86,169 L-86,193 L-99,198 L-120,205 L-121,464 L-141,472 L-161,479 L-179,486 L-199,493 L-224,502 L-227,502 L-227,526 L-251,534 L-276,543 L-295,550 L-319,559 L-343,568 L-355,572 L-357,572 L-357,140 L-362,139 L-369,136 L-365,134 L-358,137 L-349,135 L-322,124 L-265,102 L-217,83 L-183,70 L-149,57 L-118,45 L-85,32 L-69,26 L-27,10 Z " transform="translate(1381,399)" style="fill: #0082C2;"/><path d="M0,0 L6,1 L25,9 L41,15 L69,26 L96,37 L117,45 L132,51 L140,54 L168,65 L184,71 L214,83 L239,93 L241,94 L241,82 L242,82 L242,483 L238,479 L214,470 L186,459 L160,449 L145,443 L135,439 L107,428 L66,412 L39,401 L7,389 L0,386 Z " transform="translate(1506,688)" style="fill: #A8EDDB;"/><path d="M0,0 L9,3 L36,14 L76,29 L96,37 L119,46 L120,3 L129,6 L150,14 L165,20 L189,29 L231,45 L231,123 L263,111 L279,105 L310,94 L315,92 L319,92 L319,259 L334,253 L355,245 L372,239 L376,237 L379,237 L379,370 L354,379 L337,385 L336,408 L318,413 L284,426 L263,434 L246,440 L231,446 L225,444 L214,440 L203,436 L203,326 L194,323 L154,308 L144,304 L126,297 L109,291 L108,154 L88,146 L57,134 L18,119 L0,112 Z " transform="translate(793,848)" style="fill: #99E8E5;"/><path d="M0,0 L3,0 L4,408 L-12,414 L-48,427 L-69,435 L-109,450 L-135,460 L-137,461 L-138,522 L-164,531 L-207,547 L-211,548 L-211,682 L-212,682 L-212,549 L-232,557 L-247,562 L-257,566 L-269,571 L-272,571 L-272,404 L-274,403 L-248,394 L-234,389 L-230,389 L-230,365 L-202,355 L-182,348 L-164,341 L-142,333 L-126,327 L-124,327 L-124,68 L-112,63 L-94,57 L-89,56 L-89,32 L-70,25 L-45,16 L-20,7 L-4,1 Z " transform="translate(1384,536)" style="fill: #13B0B7;"/><path d="M0,0 L10,3 L22,7 L34,12 L73,27 L114,43 L118,45 L118,130 L128,133 L157,144 L184,155 L228,172 L253,182 L266,187 L291,197 L322,209 L337,215 L338,217 L341,218 L341,220 L344,221 L345,224 L353,223 L354,229 L357,232 L357,476 L352,475 L343,471 L326,465 L308,458 L285,449 L276,445 L260,439 L246,434 L234,429 L222,424 L222,307 L213,304 L189,295 L169,287 L154,281 L121,268 L88,255 L74,249 L58,243 L40,236 L30,232 L14,226 L0,220 L-1,219 L-1,1 Z M354,225 Z " transform="translate(1388,944)" style="fill: #0C95D9;"/><path d="M0,0 L10,3 L15,6 L36,14 L75,29 L86,33 L86,65 L98,68 L120,76 L130,80 L131,81 L131,193 L136,194 L188,214 L227,229 L239,234 L239,465 L234,464 L215,457 L185,445 L173,440 L158,434 L138,426 L117,418 L105,413 L70,399 L42,388 L26,382 L16,378 L0,371 Z " transform="translate(662,767)" style="fill: #0892D8;"/><path d="M0,0 L4,2 L-8,7 L-15,11 L-16,13 L-16,887 L10,877 L24,871 L34,868 L43,864 L52,861 L56,859 L64,858 L64,856 L88,848 L101,843 L110,839 L120,836 L126,833 L139,829 L163,820 L181,813 L190,809 L205,803 L206,949 L231,940 L251,932 L263,928 L273,924 L294,916 L312,909 L328,903 L340,899 L342,899 L342,989 L348,990 L365,996 L389,1005 L420,1017 L433,1022 L461,1033 L473,1037 L481,1041 L477,1043 L451,1033 L415,1019 L400,1013 L384,1007 L358,997 L344,992 L335,993 L295,1008 L280,1014 L256,1023 L217,1038 L177,1053 L146,1065 L112,1078 L86,1088 L65,1096 L45,1104 L25,1111 L8,1118 L-11,1125 L-18,1125 L-20,1122 L-20,12 L-16,7 Z " transform="translate(320,529)" style="fill: #0084BC;"/><path d="M0,0 L2,0 L2,371 L-4,374 L-14,377 L-24,381 L-49,390 L-64,396 L-84,403 L-95,407 L-106,411 L-110,411 L-110,41 L-98,36 L-66,24 L-50,18 L-14,5 Z " transform="translate(660,767)" style="fill: #0178BD;"/><path d="M0,0 L4,0 L4,167 L19,161 L40,153 L57,147 L61,145 L64,145 L64,278 L39,287 L22,293 L21,316 L3,321 L-31,334 L-52,342 L-69,348 L-83,353 L-84,352 L-84,31 L-52,19 L-36,13 L-5,2 Z " transform="translate(1108,940)" style="fill: #92DECD;"/><path d="M0,0 L2,0 L2,290 L-24,300 L-44,307 L-64,315 L-76,319 L-85,323 L-102,329 L-128,339 L-135,341 L-135,195 L-116,188 L-111,187 L-111,41 L-92,34 L-76,28 L-58,22 L-46,17 L-24,9 L-11,4 Z " transform="translate(660,1138)" style="fill: #09ACC5;"/><path d="M0,0 L3,0 L3,141 L-17,149 L-37,156 L-55,163 L-75,170 L-100,179 L-103,179 L-103,203 L-127,211 L-152,220 L-171,227 L-195,236 L-219,245 L-232,249 L-232,86 L-209,78 L-183,68 L-167,62 L-145,54 L-127,47 L-115,43 L-97,36 L-77,29 L-42,16 L-27,10 L-15,6 Z " transform="translate(1257,722)" style="fill: #005785;"/><path d="M0,0 L9,3 L25,9 L45,17 L61,23 L73,28 L87,33 L98,38 L118,46 L119,5 L120,5 L120,378 L119,378 L119,303 L110,300 L61,281 L35,271 L19,265 L1,258 L0,257 Z " transform="translate(1387,686)" style="fill: #52D5CD;"/><path d="M0,0 L4,1 L3,219 L-6,223 L-24,230 L-37,234 L-38,235 L-43,235 L-43,187 L-57,192 L-62,193 L-62,160 L-70,162 L-88,169 L-100,173 L-118,180 L-136,186 L-171,199 L-188,205 L-200,210 L-206,212 L-210,212 L-211,140 L-196,134 L-170,124 L-141,114 L-138,114 L-138,53 L-128,48 L-103,39 L-74,28 L-45,17 L-4,2 Z " transform="translate(1384,944)" style="fill: #006BA9;"/><path d="M0,0 L5,1 L22,7 L39,14 L68,25 L78,29 L94,35 L101,38 L110,41 L127,47 L135,51 L147,55 L159,60 L174,66 L196,74 L197,156 L196,164 L206,167 L226,175 L236,179 L236,182 L227,179 L193,166 L157,152 L140,146 L137,143 L135,141 L117,134 L88,123 L76,118 L47,107 L15,95 L0,90 Z M197,154 Z " transform="translate(662,1428)" style="fill: #13AED4;"/><path d="M0,0 L2,0 L2,90 L8,91 L25,97 L49,106 L80,118 L93,123 L121,134 L133,138 L141,142 L137,144 L111,134 L75,120 L60,114 L44,108 L18,98 L4,93 L-5,94 L-45,109 L-60,115 L-84,124 L-123,139 L-163,154 L-194,166 L-198,164 L-187,159 L-187,71 L-178,67 L-165,62 L-150,57 L-137,51 L-120,45 L-89,33 L-77,29 L-67,25 L-46,17 L-28,10 L-12,4 Z " transform="translate(660,1428)" style="fill: #0072AF;"/><path d="M0,0 L2,0 L2,126 L-26,136 L-65,151 L-66,151 L-66,27 L-64,24 L-38,14 L-22,8 L-2,1 Z " transform="translate(1090,1268)" style="fill: #19B3BA;"/><path d="M0,0 L4,2 L-8,7 L-15,11 L-16,13 L-17,1122 L-11,1123 L-11,1125 L-18,1125 L-20,1122 L-20,12 L-16,7 Z " transform="translate(320,529)" style="fill: #0075B6;"/><path d="M0,0 L10,3 L37,14 L76,29 L88,34 L93,40 L93,269 L92,281 L83,278 L80,275 L90,278 L89,40 L86,37 L79,35 L73,36 L71,34 L63,35 L61,32 L58,30 L57,29 L55,27 L46,27 L40,25 L40,23 L36,22 L35,20 L31,20 L31,18 L21,19 L20,14 L17,13 L17,11 L4,10 L1,10 L0,5 L1,3 L-3,1 Z M36,18 Z M41,21 Z M60,27 Z M60,29 Z M62,35 Z " transform="translate(1655,501)" style="fill: #08A1CC;"/><path d="M0,0 L1,0 L1,401 L-3,396 L-2,14 L-1,12 Z " transform="translate(1747,770)" style="fill: #8CD8C7;"/><path d="M0,0 L4,2 L-8,7 L-15,11 L-16,13 L-17,371 L-19,371 L-19,379 L-20,379 L-20,12 L-16,7 Z " transform="translate(320,529)" style="fill: #0085BD;"/><path d="M0,0 L10,3 L21,7 L23,11 L23,488 L22,488 L22,261 L19,260 L19,14 L16,13 L16,7 L11,9 L8,8 L8,6 L5,5 L4,2 L0,1 Z M17,9 Z " transform="translate(1725,1160)" style="fill: #037EC3;"/><path d="M0,0 L6,1 L37,13 L53,19 L73,27 L82,30 L94,35 L99,36 L99,34 L96,34 L95,31 L97,24 L101,25 L102,30 L103,32 L115,32 L115,40 L119,39 L127,40 L129,42 L134,41 L138,40 L139,41 L140,48 L146,50 L149,51 L149,53 L151,54 L151,57 L166,62 L177,67 L220,83 L229,87 L228,89 L223,88 L154,62 L118,48 L92,38 L53,23 L14,8 L-2,2 Z M112,40 Z " transform="translate(1417,1528)" style="fill: #0171B6;"/><path d="M0,0 L5,1 L10,3 L11,233 L8,236 L-2,235 L-27,225 L-56,214 L-84,203 L-92,200 L-90,198 L-83,199 L-78,200 L-70,199 L-67,199 L-59,200 L-61,205 L-67,204 L-70,204 L-58,209 L-33,219 L-25,221 L-23,217 L-15,218 L-15,219 L-9,220 L-9,225 L-7,225 L-4,230 L5,231 L7,230 L8,4 L3,3 Z " transform="translate(1737,1418)" style="fill: #0061B0;"/><path d="M0,0 L5,1 L33,12 L64,24 L105,40 L136,52 L183,70 L206,79 L221,85 L219,87 L214,86 L196,79 L186,79 L184,78 L179,78 L177,77 L173,75 L171,71 L160,71 L160,69 L156,68 L156,64 L141,58 L136,56 L129,55 L128,52 L118,49 L100,42 L80,34 L66,29 L39,18 L10,7 L-2,2 Z " transform="translate(1396,401)" style="fill: #0F9BBC;"/><path d="M0,0 L6,1 L10,4 L5,8 L4,15 L6,17 L6,28 L4,32 L4,37 L6,42 L6,59 L4,64 L5,68 L6,75 L4,75 L3,84 L6,82 L6,87 L4,94 L3,104 L3,136 L5,140 L3,144 L3,151 L4,153 L3,167 L6,174 L5,182 L4,186 L4,190 L6,191 L5,199 L3,201 L3,248 L4,256 L5,260 L5,268 L6,273 L3,278 L2,298 L1,298 Z M3,38 Z M3,192 Z " transform="translate(1506,688)" style="fill: #B5F4E1;"/><path d="M0,0 L3,3 L3,238 L9,239 L9,241 L2,241 L0,238 Z " transform="translate(300,1413)" style="fill: #0072A7;"/><path d="M0,0 L2,0 L2,260 L1,260 L0,224 L-1,224 L-1,8 Z " transform="translate(301,900)" style="fill: #0076B6;"/><path d="M0,0 L4,0 L4,167 L19,161 L40,153 L57,147 L61,145 L64,145 L64,278 L61,277 L63,277 L62,212 L61,175 L62,151 L57,153 L56,156 L48,154 L46,153 L46,156 L42,155 L32,159 L25,162 L16,165 L6,169 L4,171 L3,168 L1,76 L2,60 L2,2 L-1,1 Z M31,160 L37,160 L34,164 L31,163 Z M30,161 Z M29,162 Z " transform="translate(1108,940)" style="fill: #9EEEDB;"/><path d="M0,0 L4,1 L6,0 L11,5 L12,9 L14,11 L21,8 L21,10 L19,10 L22,13 L24,8 L27,9 L27,15 L30,15 L37,13 L37,15 L45,15 L51,17 L53,20 L53,24 L62,23 L64,22 L67,23 L67,25 L63,26 L69,27 L67,31 L71,30 L69,33 L62,32 L62,30 L53,30 L53,28 L46,28 L44,29 L26,22 L2,13 L2,10 L-3,8 Z M9,7 Z M23,13 Z M27,17 Z " transform="translate(1595,1584)" style="fill: #0272B9;"/><path d="M0,0 L4,2 L-8,7 L-15,11 L-16,13 L-17,162 L-18,167 L-19,167 L-20,139 L-20,12 L-16,7 Z " transform="translate(320,529)" style="fill: #0081B7;"/><path d="M0,0 L1,0 L1,238 L-5,236 L-6,234 L-1,233 L-2,178 L-2,6 Z " transform="translate(1023,1418)" style="fill: #33CBE7;"/><path d="M0,0 L3,1 L2,236 L8,235 L4,237 L3,239 L0,238 Z " transform="translate(1024,1419)" style="fill: #02558D;"/><path d="M0,0 L1,0 L1,253 L0,253 L-1,236 L-2,194 L-1,156 L-1,1 Z " transform="translate(1386,684)" style="fill: #14AAAF;"/><path d="M0,0 L10,3 L45,17 L45,20 L39,20 L37,21 L35,17 L22,15 L18,15 L16,9 L14,8 L4,8 L4,14 L5,16 L3,23 L3,32 L4,39 L5,41 L5,47 L3,48 L2,107 L5,108 L4,111 L0,110 Z " transform="translate(794,849)" style="fill: #AAF2EB;"/><path d="M0,0 L6,1 L26,9 L42,15 L56,21 L72,27 L78,30 L76,31 L67,29 L65,31 L61,30 L61,27 L61,25 L47,25 L44,22 L43,19 L29,15 L25,13 L24,15 L21,14 L21,9 L12,9 L7,8 L4,10 L3,22 L1,25 L3,25 L2,32 L2,67 L3,74 L1,84 L0,84 Z M35,15 Z M2,30 Z M61,31 L64,33 L60,33 Z " transform="translate(1388,687)" style="fill: #5CDBD3;"/><path d="M0,0 L2,0 L2,155 L-2,150 L-1,7 Z " transform="translate(1746,1016)" style="fill: #88D3C7;"/><path d="M0,0 L11,1 L41,12 L69,23 L114,40 L124,44 L122,46 L116,45 L90,35 L59,23 L46,18 L8,4 L3,3 L3,9 L-1,10 L-5,8 L-4,5 L-11,8 L-17,7 L-14,5 Z " transform="translate(658,398)" style="fill: #068BB6;"/><path d="M0,0 L7,1 L12,2 L20,1 L23,1 L31,2 L29,7 L23,6 L20,6 L32,11 L57,21 L65,23 L67,19 L75,20 L75,21 L81,22 L81,27 L83,27 L86,32 L90,34 L86,36 L70,30 L55,24 L34,16 L6,5 L-2,2 Z " transform="translate(1647,1616)" style="fill: #0260A2;"/><path d="M0,0 L9,2 L22,7 L31,7 L35,6 L40,8 L44,12 L45,14 L54,15 L56,16 L58,19 L62,19 L62,21 L64,21 L65,24 L81,30 L82,27 L84,28 L84,31 L87,32 L87,36 L77,33 L57,25 L26,13 L9,6 L-2,2 Z " transform="translate(901,1609)" style="fill: #1AAAC6;"/><path d="M0,0 L4,1 L3,3 L-26,14 L-55,25 L-83,36 L-107,45 L-148,61 L-152,59 L-140,54 L-111,43 L-80,31 L-51,20 L-33,13 L-15,6 L-14,2 L-6,3 Z " transform="translate(1210,1584)" style="fill: #00427E;"/><path d="M0,0 L7,1 L25,0 L26,7 L29,8 L35,8 L38,9 L41,9 L42,13 L41,16 L39,17 L31,17 L23,14 L22,16 L15,14 L5,10 L-5,7 L-2,5 L0,5 Z M18,16 L20,17 Z " transform="translate(1397,1512)" style="fill: #0272B7;"/><path d="M0,0 L4,2 L-27,15 L-29,17 L-33,17 L-33,277 L-34,277 L-35,16 L-40,15 L-47,12 L-43,10 L-36,13 L-27,11 Z " transform="translate(1059,523)" style="fill: #0176B4;"/><path d="M0,0 L4,2 L-3,6 L-6,11 L-8,15 L-10,12 L-13,15 L-20,15 L-21,14 L-27,19 L-31,23 L-34,24 L-34,22 L-44,23 L-47,26 L-60,26 L-59,23 L-8,3 Z M-65,25 L-60,26 L-62,28 L-65,27 Z " transform="translate(567,433)" style="fill: #0384BC;"/><path d="M0,0 L30,11 L61,23 L75,28 L87,33 L107,41 L119,45 L127,49 L123,51 L97,41 L61,27 L46,21 L30,15 L4,5 L-2,3 L-2,1 Z " transform="translate(674,1521)" style="fill: #0891B2;"/><path d="M0,0 L10,3 L37,14 L43,17 L42,19 L60,26 L60,28 L57,29 L55,27 L46,27 L40,25 L40,23 L36,22 L35,20 L31,20 L31,18 L21,19 L20,14 L17,13 L17,11 L4,10 L1,10 L0,5 L1,3 L-3,1 Z M36,18 Z M41,21 Z " transform="translate(1655,501)" style="fill: #11A7CD;"/><path d="M0,0 L4,2 L2,2 L1,5 L-3,7 L-14,9 L-30,15 L-40,19 L-51,24 L-65,29 L-81,35 L-100,43 L-116,49 L-119,49 L-119,46 L-75,29 L-39,15 L-3,1 Z " transform="translate(1214,463)" style="fill: #01659E;"/><path d="M0,0 L1,0 L2,285 L8,285 L25,279 L27,277 L31,277 L31,279 L2,290 L0,289 Z " transform="translate(1024,1003)" style="fill: #94E1D8;"/><path d="M0,0 L3,0 L3,148 L2,148 L1,120 L2,110 L0,110 L1,101 L1,10 L2,3 L-4,4 L-8,7 L-16,8 L-25,12 L-38,16 L-54,22 L-64,25 L-69,28 L-80,30 L-76,27 L-60,21 L-20,7 L-4,1 Z " transform="translate(1384,536)" style="fill: #10AEC2;"/><path d="M0,0 L5,1 L5,139 L4,139 L3,104 L1,96 L1,79 L3,79 L2,68 L0,72 L0,64 L2,57 L2,49 L1,57 L0,57 L0,41 L1,38 L2,31 L4,2 Z M0,38 Z " transform="translate(896,1000)" style="fill: #0185D0;"/><path d="M0,0 L4,2 L-10,8 L-39,19 L-55,26 L-69,31 L-71,36 L-76,38 L-79,37 L-81,37 L-88,38 L-98,41 L-101,39 L-64,25 L-28,11 Z " transform="translate(423,489)" style="fill: #027BAF;"/><path d="M0,0 L8,2 L22,7 L34,12 L65,24 L72,27 L72,137 L78,138 L80,140 L71,138 L69,137 L69,28 L54,22 L42,18 L33,15 L32,13 L22,10 L1,2 Z " transform="translate(924,1147)" style="fill: #35BCD2;"/><path d="M0,0 L9,2 L25,8 L34,12 L47,17 L60,22 L100,37 L114,43 L113,45 L108,44 L39,18 L3,4 L0,2 Z " transform="translate(1532,1572)" style="fill: #005697;"/><path d="M0,0 L23,9 L39,15 L63,24 L75,29 L77,33 L63,31 L63,28 L63,26 L60,27 L56,24 L47,24 L44,24 L39,23 L38,17 L29,15 L27,16 L25,14 L23,16 L15,16 L15,9 L8,8 L7,7 L1,7 L-1,8 L-1,4 L-3,2 Z M16,8 Z M21,13 Z M20,14 Z M39,18 Z M31,15 Z " transform="translate(1449,424)" style="fill: #15B3D8;"/><path d="M0,0 L6,1 L37,13 L53,19 L73,27 L82,30 L94,35 L114,43 L113,46 L87,36 L53,23 L14,8 L-2,2 Z " transform="translate(1417,1528)" style="fill: #005493;"/><path d="M0,0 L2,0 L3,20 L3,104 L1,104 L1,112 L0,112 Z " transform="translate(300,796)" style="fill: #0086BE;"/><path d="M0,0 L6,1 L39,14 L43,16 L43,101 L41,101 L40,19 L33,18 L31,16 L33,14 L29,13 L28,15 L25,15 L25,12 L16,11 L15,7 L7,5 L7,3 L0,1 Z M35,17 Z M29,17 L31,18 Z " transform="translate(1463,973)" style="fill: #0689CC;"/><path d="M0,0 L2,0 L2,109 L1,109 L1,96 L-1,96 L-1,8 Z " transform="translate(301,900)" style="fill: #0072B3;"/><path d="M0,0 L4,0 L4,167 L19,161 L25,160 L23,162 L16,165 L6,169 L4,171 L3,168 L1,76 L2,60 L2,2 L-1,1 Z " transform="translate(1108,940)" style="fill: #95E8D8;"/><path d="M0,0 L3,1 L2,5 L4,5 L2,10 L1,12 L3,13 L2,14 L1,61 L1,150 L3,151 L1,154 L6,155 L6,158 L1,157 L-1,156 L-1,5 Z " transform="translate(1388,530)" style="fill: #1EBFDE;"/><path d="M0,0 L3,1 L2,2 L2,52 L3,69 L2,80 L2,135 L1,139 L3,140 L6,140 L16,138 L26,134 L31,132 L35,133 L20,139 L1,146 L0,146 Z M1,142 Z " transform="translate(525,1333)" style="fill: #0EB1CE;"/><path d="M0,0 L4,2 L-7,7 L-13,8 L-13,11 L-17,13 L-19,17 L-24,18 L-33,17 L-57,26 L-64,29 L-70,28 L-67,26 L-36,14 Z " transform="translate(639,405)" style="fill: #037FB4;"/><path d="M0,0 L2,1 L2,4 L6,5 L26,13 L26,11 L28,11 L28,14 L37,17 L47,20 L47,22 L58,25 L70,30 L94,39 L102,42 L109,45 L115,45 L117,44 L118,51 L109,48 L60,29 L34,19 L18,13 L0,6 L-1,4 Z M16,8 L19,9 Z " transform="translate(1388,938)" style="fill: #52D9E1;"/><path d="M0,0 L3,3 L3,130 L2,130 L1,74 L0,66 Z " transform="translate(300,1413)" style="fill: #006BA5;"/><path d="M0,0 L1,3 L-2,4 L-4,6 L-9,5 L-9,7 L-17,8 L-18,12 L-21,18 L-20,23 L-22,29 L-24,28 L-26,34 L-31,36 L-34,39 L-42,40 L-45,44 L-47,38 L-32,33 L-27,33 L-27,10 L-18,6 Z M-5,6 Z M-21,25 Z " transform="translate(1156,1223)" style="fill: #065089;"/><path d="M0,0 L10,3 L30,11 L45,17 L50,23 L49,39 L48,39 L46,23 L43,20 L36,18 L30,19 L28,17 L20,18 L18,15 L15,13 L17,10 L-1,3 L-2,1 Z M17,12 Z M19,18 Z " transform="translate(1698,518)" style="fill: #0B9ABC;"/><path d="M0,0 L1,0 L2,229 L-1,232 L-11,231 L-8,229 L-2,229 L-1,227 Z " transform="translate(1746,1422)" style="fill: #005297;"/></svg>